<svg width="32" height="106" viewBox="0 0 32 106" fill="none" xmlns="http://www.w3.org/2000/svg">
<path d="M30.4003 41.7845L29.408 41.9081L30.4003 41.7845ZM21.3529 85.9109L22.1765 86.4781L22.2522 86.3682L22.2965 86.2422L21.3529 85.9109ZM7.52586 105.987L17.9529 101.026L8.44309 94.4768L7.52586 105.987ZM0.753712 2.53178C1.02112 2.72327 1.28762 2.91459 1.55317 3.10578L2.72177 1.4827C2.4547 1.29042 2.18682 1.09811 1.91816 0.905723L0.753712 2.53178ZM3.1428 4.25788C3.67341 4.64528 4.19971 5.03267 4.72138 5.4206L5.91483 3.81571C5.38792 3.42388 4.85687 3.033 4.32213 2.64258L3.1428 4.25788ZM6.28792 6.59855C6.80995 6.99578 7.32671 7.39407 7.83786 7.79399L9.07026 6.2188C8.55145 5.81289 8.02756 5.40912 7.49903 5.00694L6.28792 6.59855ZM9.36763 9.0101C9.87602 9.4211 10.3781 9.83431 10.8736 10.2503L12.1597 8.71863C11.6541 8.29412 11.1424 7.87302 10.625 7.45477L9.36763 9.0101ZM12.353 11.519C12.8433 11.9488 13.3263 12.3821 13.8016 12.8195L15.1559 11.3479C14.6682 10.899 14.1732 10.4549 13.6715 10.0151L12.353 11.519ZM15.2136 14.1542C15.6792 14.6065 16.1363 15.0636 16.5846 15.5261L18.0207 14.1341C17.5578 13.6566 17.0865 13.1853 16.6073 12.7197L15.2136 14.1542ZM17.9105 16.9391C18.3448 17.4178 18.7698 17.9026 19.185 18.3943L20.7131 17.1041C20.282 16.5935 19.8413 16.0907 19.3916 15.5951L17.9105 16.9391ZM20.4029 19.8936C20.7988 20.4006 21.1843 20.9152 21.5592 21.438L23.1845 20.2725C22.7934 19.727 22.3915 19.1907 21.9794 18.6629L20.4029 19.8936ZM22.6486 23.0274C22.9991 23.5632 23.3387 24.1077 23.667 24.6617L25.3876 23.6422C25.044 23.0622 24.6887 22.4925 24.3223 21.9324L22.6486 23.0274ZM24.6107 26.3401C24.9102 26.9025 25.1984 27.4748 25.475 28.0574L27.2818 27.1997C26.9919 26.589 26.6898 25.9893 26.376 25.4L24.6107 26.3401ZM26.2592 29.8132C26.5051 30.3997 26.7396 30.9967 26.9624 31.6047L28.8403 30.9168C28.6071 30.28 28.3614 29.6546 28.1037 29.04L26.2592 29.8132ZM27.5841 33.4285C27.7755 34.0337 27.9556 34.6498 28.1243 35.2773L30.0557 34.7581C29.8796 34.1027 29.6912 33.4587 29.4911 32.8256L27.5841 33.4285ZM28.5849 37.1476C28.7237 37.7667 28.8518 38.3966 28.9688 39.0378L30.9363 38.6788C30.8146 38.0116 30.6812 37.3554 30.5364 36.7099L28.5849 37.1476ZM29.2789 40.9441C29.3246 41.2627 29.3676 41.584 29.408 41.9081L31.3927 41.6608C31.3508 41.3247 31.3061 40.9912 31.2587 40.6603L29.2789 40.9441ZM29.408 41.9081C29.4499 42.2443 29.4881 42.5803 29.5225 42.916L31.5121 42.7115C31.4761 42.3617 31.4364 42.0115 31.3927 41.6608L29.408 41.9081ZM29.6871 44.9356C29.7281 45.6131 29.755 46.2891 29.7686 46.9632L31.7682 46.923C31.7541 46.2226 31.7261 45.5198 31.6834 44.8148L29.6871 44.9356ZM29.77 48.9942C29.7575 49.6734 29.7322 50.3504 29.695 51.0249L31.692 51.1349C31.7305 50.4368 31.7567 49.7354 31.7697 49.031L29.77 48.9942ZM29.5475 53.054C29.4864 53.7322 29.414 54.4075 29.3313 55.0794L31.3163 55.3239C31.4016 54.631 31.4763 53.934 31.5394 53.2333L29.5475 53.054ZM29.0508 57.0981C28.9466 57.7727 28.8327 58.4435 28.71 59.1101L30.677 59.472C30.803 58.7873 30.9201 58.0977 31.0273 57.4035L29.0508 57.0981ZM28.3131 61.1142C28.1713 61.7837 28.0214 62.4485 27.8646 63.1081L29.8103 63.5707C29.9708 62.8958 30.1243 62.215 30.2697 61.5286L28.3131 61.1142ZM27.368 65.0944C27.1939 65.7591 27.0135 66.4179 26.828 67.0705L28.7518 67.6173C28.9409 66.9522 29.1249 66.28 29.3027 65.6012L27.368 65.0944ZM26.2488 69.037C26.0476 69.6976 25.8422 70.3509 25.6338 70.9967L27.5371 71.6111C27.7487 70.9556 27.9574 70.2916 28.162 69.6197L26.2488 69.037ZM24.9886 72.9461C24.7658 73.6039 24.5411 74.2528 24.3159 74.8924L26.2024 75.5567C26.4299 74.9105 26.6573 74.2539 26.8829 73.5877L24.9886 72.9461ZM23.6226 76.831C23.3843 77.4883 23.147 78.1344 22.9125 78.7689L24.7884 79.4624C25.0239 78.8252 25.2627 78.1751 25.5028 77.5128L23.6226 76.831ZM22.1924 80.7076C21.946 81.369 21.7047 82.0166 21.4712 82.6483L23.347 83.3419C23.5796 82.7129 23.82 82.0677 24.0666 81.4057L22.1924 80.7076ZM20.7585 84.5981C20.639 84.9301 20.5225 85.2574 20.4094 85.5796L22.2965 86.2422C22.4077 85.9255 22.5224 85.6032 22.6404 85.2752L20.7585 84.5981ZM20.5294 85.3437L19.9532 86.1802L21.6004 87.3146L22.1765 86.4781L20.5294 85.3437ZM18.801 87.8532L17.6487 89.5263L19.2959 90.6607L20.4481 88.9877L18.801 87.8532ZM16.4965 91.1993L15.3442 92.8723L16.9914 94.0068L18.1436 92.3337L16.4965 91.1993ZM14.192 94.5454L13.0397 96.2184L14.6868 97.3528L15.8391 95.6798L14.192 94.5454ZM11.8874 97.8914L10.7352 99.5645L12.3823 100.699L13.5346 99.0259L11.8874 97.8914ZM9.58293 101.238L8.43068 102.911L10.0778 104.045L11.2301 102.372L9.58293 101.238Z" fill="white"/>
</svg>
