<svg width="122" height="32" viewBox="0 0 122 32" fill="none" xmlns="http://www.w3.org/2000/svg">
<path d="M14.15 11.658C15.238 12.1793 16.0993 12.9273 16.734 13.902C17.3913 14.8767 17.72 15.9987 17.72 17.268C17.72 19.172 17.0513 20.77 15.714 22.062C14.3767 23.354 12.7447 24 10.818 24H0.55V0.199998H10.07C11.9287 0.199998 13.504 0.823332 14.796 2.07C16.088 3.31667 16.734 4.858 16.734 6.694C16.734 8.802 15.8727 10.4567 14.15 11.658ZM10.07 3.158H3.712V10.434H10.07C11.0673 10.434 11.906 10.0827 12.586 9.38C13.266 8.67733 13.606 7.816 13.606 6.796C13.606 5.79867 13.2547 4.94867 12.552 4.246C11.872 3.52067 11.0447 3.158 10.07 3.158ZM10.818 21.042C11.8833 21.042 12.7787 20.668 13.504 19.92C14.2293 19.172 14.592 18.254 14.592 17.166C14.592 16.1007 14.218 15.194 13.47 14.446C12.7447 13.698 11.8607 13.324 10.818 13.324H3.712V21.042H10.818ZM31.8972 7H34.8552V24H31.8972V21.552C30.6959 23.4787 28.8599 24.442 26.3892 24.442C24.3945 24.442 22.7965 23.8187 21.5952 22.572C20.3939 21.3027 19.7932 19.5913 19.7932 17.438V7H22.7512V17.268C22.7512 18.6507 23.1252 19.7273 23.8732 20.498C24.6212 21.246 25.6525 21.62 26.9672 21.62C28.4405 21.62 29.6305 21.1667 30.5372 20.26C31.4439 19.3307 31.8972 17.914 31.8972 16.01V7ZM52.0746 0.199998H55.0326V24H52.0746V21.076C50.6013 23.32 48.4593 24.442 45.6486 24.442C43.2686 24.442 41.2399 23.5807 39.5626 21.858C37.8853 20.1127 37.0466 17.9933 37.0466 15.5C37.0466 13.0067 37.8853 10.8987 39.5626 9.176C41.2399 7.43067 43.2686 6.558 45.6486 6.558C48.4593 6.558 50.6013 7.68 52.0746 9.924V0.199998ZM46.0226 21.586C47.7453 21.586 49.1846 21.008 50.3406 19.852C51.4966 18.6733 52.0746 17.2227 52.0746 15.5C52.0746 13.7773 51.4966 12.338 50.3406 11.182C49.1846 10.0033 47.7453 9.414 46.0226 9.414C44.3226 9.414 42.8946 10.0033 41.7386 11.182C40.5826 12.338 40.0046 13.7773 40.0046 15.5C40.0046 17.2227 40.5826 18.6733 41.7386 19.852C42.8946 21.008 44.3226 21.586 46.0226 21.586ZM74.3042 7H75.5282V23.082C75.5282 25.5753 74.7576 27.5473 73.2162 28.998C71.6749 30.4487 69.6349 31.174 67.0962 31.174C65.1469 31.174 63.4809 30.8 62.0982 30.052C60.7156 29.304 59.7296 28.318 59.1402 27.094L60.1602 26.516C60.6362 27.536 61.4522 28.3747 62.6082 29.032C63.7869 29.6893 65.2829 30.018 67.0962 30.018C69.3629 30.018 71.1309 29.3947 72.4002 28.148C73.6696 26.9013 74.3042 25.2127 74.3042 23.082V19.478C73.6016 20.974 72.5702 22.164 71.2102 23.048C69.8502 23.932 68.2976 24.374 66.5522 24.374C64.1042 24.374 62.0189 23.524 60.2962 21.824C58.5736 20.1013 57.7122 17.9933 57.7122 15.5C57.7122 13.0067 58.5736 10.91 60.2962 9.21C62.0189 7.48733 64.1042 6.626 66.5522 6.626C68.2976 6.626 69.8502 7.068 71.2102 7.952C72.5702 8.836 73.6016 10.026 74.3042 11.522V7ZM61.1462 21.008C62.6422 22.4813 64.4669 23.218 66.6202 23.218C68.7736 23.218 70.5869 22.4813 72.0602 21.008C73.5562 19.512 74.3042 17.676 74.3042 15.5C74.3042 13.324 73.5562 11.4993 72.0602 10.026C70.5869 8.53 68.7736 7.782 66.6202 7.782C64.4669 7.782 62.6422 8.53 61.1462 10.026C59.6729 11.4993 58.9362 13.324 58.9362 15.5C58.9362 17.676 59.6729 19.512 61.1462 21.008ZM92.2955 7H93.5195V24H92.2955V20.226C91.7062 21.6087 90.8449 22.6513 89.7115 23.354C88.6009 24.034 87.3202 24.374 85.8695 24.374C83.8975 24.374 82.3109 23.762 81.1095 22.538C79.9309 21.314 79.3415 19.6933 79.3415 17.676V7H80.5315V17.676C80.5315 19.3307 81.0189 20.668 81.9935 21.688C82.9682 22.708 84.2942 23.218 85.9715 23.218C87.8302 23.218 89.3489 22.5833 90.5275 21.314C91.7062 20.0447 92.2955 18.288 92.2955 16.044V7ZM99.039 10.842C99.5376 9.45933 100.331 8.43933 101.419 7.782C102.507 7.102 103.708 6.762 105.023 6.762V7.918C103.346 7.918 101.929 8.496 100.773 9.652C99.617 10.7853 99.039 12.4173 99.039 14.548V24H97.815V7H99.039V10.842ZM119.857 7H121.081V24H119.857V20.226C119.267 21.6087 118.406 22.6513 117.273 23.354C116.162 24.034 114.881 24.374 113.431 24.374C111.459 24.374 109.872 23.762 108.671 22.538C107.492 21.314 106.903 19.6933 106.903 17.676V7H108.093V17.676C108.093 19.3307 108.58 20.668 109.555 21.688C110.529 22.708 111.855 23.218 113.533 23.218C115.391 23.218 116.91 22.5833 118.089 21.314C119.267 20.0447 119.857 18.288 119.857 16.044V7Z" fill="white"/>
</svg>
