<svg width="35" height="105" viewBox="0 0 35 105" fill="none" xmlns="http://www.w3.org/2000/svg">
<path d="M1.35649 45.2302L2.35524 45.1804L1.35649 45.2302ZM17.8981 87.1274L17.185 87.8285L17.0914 87.7333L17.0261 87.6169L17.8981 87.1274ZM34.9885 104.51L23.8607 101.427L32.0947 93.3319L34.9885 104.51ZM23.7688 1.44229C23.5385 1.67714 23.3091 1.91165 23.0806 2.14589L21.649 0.749335C21.8788 0.513769 22.1094 0.278035 22.3407 0.0420885L23.7688 1.44229ZM21.7142 3.55552C21.2586 4.02883 20.8072 4.50139 20.3604 4.97369L18.9074 3.59935C19.3587 3.12231 19.8141 2.64549 20.2733 2.16848L21.7142 3.55552ZM19.0212 6.40478C18.5757 6.8863 18.1356 7.36795 17.7013 7.85024L16.2151 6.51189C16.6559 6.02239 17.1021 5.5341 17.5531 5.04659L19.0212 6.40478ZM16.4049 9.31256C15.9752 9.80528 15.5521 10.2991 15.136 10.7945L13.6045 9.50829C14.0291 9.00274 14.4603 8.4995 14.8975 7.99809L16.4049 9.31256ZM13.8983 12.2999C13.4897 12.8081 13.0889 13.3183 12.6965 13.8313L11.108 12.6161C11.5108 12.0896 11.9216 11.5666 12.3397 11.0466L13.8983 12.2999ZM11.5365 15.3901C11.1562 15.916 10.785 16.4453 10.4234 16.9784L8.76823 15.8557C9.14156 15.3053 9.52426 14.7597 9.91573 14.2182L11.5365 15.3901ZM9.36187 18.5993C9.01681 19.1459 8.68208 19.697 8.35821 20.2531L6.62997 19.2465C6.96626 18.6691 7.31337 18.0977 7.67067 17.5317L9.36187 18.5993ZM7.41786 21.9403C7.11566 22.5082 6.82488 23.0817 6.54606 23.6614L4.7437 22.7945C5.03462 22.1897 5.3377 21.5919 5.65231 21.0008L7.41786 21.9403ZM5.7479 25.4153C5.49532 26.0036 5.255 26.5987 5.02749 27.2011L3.15649 26.4944C3.39466 25.8638 3.64608 25.2413 3.91012 24.6262L5.7479 25.4153ZM4.38825 29.0174C4.1905 29.6231 4.00554 30.2366 3.83389 30.8583L1.90603 30.3259C2.08595 29.6743 2.27979 29.0314 2.487 28.3967L4.38825 29.0174ZM3.36509 32.7232C3.22434 33.3434 3.0966 33.9719 2.98236 34.6093L1.01373 34.2565C1.13337 33.589 1.26719 32.9305 1.41468 32.2806L3.36509 32.7232ZM2.68533 36.5131C2.60154 37.1423 2.53061 37.7803 2.473 38.4275L0.48088 38.2501C0.541053 37.5742 0.615183 36.9073 0.702835 36.2491L2.68533 36.5131ZM2.34277 40.3493C2.31307 40.9831 2.29584 41.6257 2.29147 42.2774L0.291514 42.264C0.296062 41.5858 0.313999 40.9165 0.344965 40.2557L2.34277 40.3493ZM2.31569 44.2086C2.3258 44.5303 2.33897 44.8542 2.35524 45.1804L0.357728 45.28C0.340848 44.9417 0.327177 44.6055 0.316672 44.2715L2.31569 44.2086ZM2.35524 45.1804C2.37213 45.5188 2.39265 45.8563 2.41673 46.1929L0.421823 46.3356C0.396737 45.9848 0.375331 45.633 0.357728 45.28L2.35524 45.1804ZM2.60389 48.2106C2.68065 48.885 2.77107 49.5554 2.87428 50.2218L0.897841 50.5279C0.790628 49.8356 0.696596 49.1385 0.616722 48.4368L2.60389 48.2106ZM3.22406 52.2223C3.35383 52.8892 3.4958 53.5516 3.64905 54.2095L1.7012 54.6632C1.54257 53.9822 1.39546 53.2959 1.26089 52.6044L3.22406 52.2223ZM4.14527 56.1825C4.3227 56.84 4.51075 57.4925 4.70845 58.1401L2.79562 58.7241C2.59176 58.0564 2.39765 57.3828 2.21435 56.7036L4.14527 56.1825ZM5.3338 60.0798C5.55308 60.7262 5.78128 61.3672 6.01736 62.0025L4.14261 62.6992C3.90012 62.0466 3.66549 61.3876 3.43982 60.7224L5.3338 60.0798ZM6.75489 63.9079C7.01033 64.5428 7.27285 65.1716 7.54139 65.7941L5.70496 66.5863C5.43019 65.9493 5.1613 65.3052 4.89943 64.6544L6.75489 63.9079ZM8.37399 67.6646C8.66043 68.2892 8.952 68.9069 9.24755 69.5176L7.44729 70.3889C7.14606 69.7664 6.84857 69.1362 6.55605 68.4984L8.37399 67.6646ZM10.1581 71.3544C10.4705 71.9702 10.7858 72.5782 11.1027 73.1781L9.33433 74.1124C9.01259 73.5033 8.69218 72.8855 8.37445 72.2591L10.1581 71.3544ZM12.0752 74.9866C12.4084 75.596 12.742 76.1963 13.0744 76.7873L11.3312 77.7678C10.9954 77.1706 10.6579 76.5633 10.3204 75.9461L12.0752 74.9866ZM14.0925 78.5768C14.4409 79.183 14.7863 79.7783 15.127 80.3627L13.3993 81.3701C13.0571 80.7833 12.7095 80.1842 12.3585 79.5734L14.0925 78.5768ZM16.1715 82.1477C16.5285 82.7565 16.8782 83.3526 17.2175 83.9344L15.4898 84.942C15.1519 84.3627 14.8036 83.7687 14.4463 83.1593L16.1715 82.1477ZM18.2565 85.7316C18.4316 86.038 18.603 86.3402 18.7701 86.638L17.0261 87.6169C16.8618 87.3242 16.693 87.0265 16.5201 86.7239L18.2565 85.7316ZM18.6112 86.4263L19.3233 87.1506L17.8971 88.5528L17.185 87.8285L18.6112 86.4263ZM20.7475 88.5992L22.1717 90.0478L20.7455 91.4499L19.3213 90.0014L20.7475 88.5992ZM23.5959 91.4964L25.0201 92.9449L23.5939 94.3471L22.1697 92.8985L23.5959 91.4964ZM26.4443 94.3935L27.8685 95.8421L26.4423 97.2443L25.0181 95.7957L26.4443 94.3935ZM29.2927 97.2907L30.7169 98.7393L29.2907 100.141L27.8665 98.6928L29.2927 97.2907ZM32.1411 100.188L33.5653 101.636L32.1391 103.039L30.7149 101.59L32.1411 100.188Z" fill="white"/>
</svg>
