<svg width="278" height="72" viewBox="0 0 278 72" fill="none" xmlns="http://www.w3.org/2000/svg">
<path d="M32.05 26.686C34.546 27.882 36.522 29.598 37.978 31.834C39.486 34.07 40.24 36.644 40.24 39.556C40.24 43.924 38.706 47.59 35.638 50.554C32.57 53.518 28.826 55 24.406 55H0.85V0.399996H22.69C26.954 0.399996 30.568 1.83 33.532 4.69C36.496 7.55 37.978 11.086 37.978 15.298C37.978 20.134 36.002 23.93 32.05 26.686ZM22.69 7.186H8.104V23.878H22.69C24.978 23.878 26.902 23.072 28.462 21.46C30.022 19.848 30.802 17.872 30.802 15.532C30.802 13.244 29.996 11.294 28.384 9.682C26.824 8.018 24.926 7.186 22.69 7.186ZM24.406 48.214C26.85 48.214 28.904 47.356 30.568 45.64C32.232 43.924 33.064 41.818 33.064 39.322C33.064 36.878 32.206 34.798 30.49 33.082C28.826 31.366 26.798 30.508 24.406 30.508H8.104V48.214H24.406ZM72.7642 16H79.5502V55H72.7642V49.384C70.0082 53.804 65.7962 56.014 60.1282 56.014C55.5522 56.014 51.8862 54.584 49.1302 51.724C46.3742 48.812 44.9962 44.886 44.9962 39.946V16H51.7822V39.556C51.7822 42.728 52.6402 45.198 54.3562 46.966C56.0722 48.682 58.4382 49.54 61.4542 49.54C64.8342 49.54 67.5642 48.5 69.6442 46.42C71.7242 44.288 72.7642 41.038 72.7642 36.67V16ZM119.054 0.399996H125.84V55H119.054V48.292C115.674 53.44 110.76 56.014 104.312 56.014C98.8515 56.014 94.1975 54.038 90.3495 50.086C86.5015 46.082 84.5775 41.22 84.5775 35.5C84.5775 29.78 86.5015 24.944 90.3495 20.992C94.1975 16.988 98.8515 14.986 104.312 14.986C110.76 14.986 115.674 17.56 119.054 22.708V0.399996ZM105.17 49.462C109.122 49.462 112.424 48.136 115.076 45.484C117.728 42.78 119.054 39.452 119.054 35.5C119.054 31.548 117.728 28.246 115.076 25.594C112.424 22.89 109.122 21.538 105.17 21.538C101.27 21.538 97.9935 22.89 95.3415 25.594C92.6895 28.246 91.3635 31.548 91.3635 35.5C91.3635 39.452 92.6895 42.78 95.3415 45.484C97.9935 48.136 101.27 49.462 105.17 49.462ZM170.051 16H172.859V52.894C172.859 58.614 171.091 63.138 167.555 66.466C164.019 69.794 159.339 71.458 153.515 71.458C149.043 71.458 145.221 70.6 142.049 68.884C138.877 67.168 136.615 64.906 135.263 62.098L137.603 60.772C138.695 63.112 140.567 65.036 143.219 66.544C145.923 68.052 149.355 68.806 153.515 68.806C158.715 68.806 162.771 67.376 165.683 64.516C168.595 61.656 170.051 57.782 170.051 52.894V44.626C168.439 48.058 166.073 50.788 162.953 52.816C159.833 54.844 156.271 55.858 152.267 55.858C146.651 55.858 141.867 53.908 137.915 50.008C133.963 46.056 131.987 41.22 131.987 35.5C131.987 29.78 133.963 24.97 137.915 21.07C141.867 17.118 146.651 15.142 152.267 15.142C156.271 15.142 159.833 16.156 162.953 18.184C166.073 20.212 168.439 22.942 170.051 26.374V16ZM139.865 48.136C143.297 51.516 147.483 53.206 152.423 53.206C157.363 53.206 161.523 51.516 164.903 48.136C168.335 44.704 170.051 40.492 170.051 35.5C170.051 30.508 168.335 26.322 164.903 22.942C161.523 19.51 157.363 17.794 152.423 17.794C147.483 17.794 143.297 19.51 139.865 22.942C136.485 26.322 134.795 30.508 134.795 35.5C134.795 40.492 136.485 44.704 139.865 48.136ZM211.325 16H214.133V55H211.325V46.342C209.973 49.514 207.997 51.906 205.397 53.518C202.849 55.078 199.911 55.858 196.583 55.858C192.059 55.858 188.419 54.454 185.663 51.646C182.959 48.838 181.607 45.12 181.607 40.492V16H184.337V40.492C184.337 44.288 185.455 47.356 187.691 49.696C189.927 52.036 192.969 53.206 196.817 53.206C201.081 53.206 204.565 51.75 207.269 48.838C209.973 45.926 211.325 41.896 211.325 36.748V16ZM226.795 24.814C227.939 21.642 229.759 19.302 232.255 17.794C234.751 16.234 237.507 15.454 240.523 15.454V18.106C236.675 18.106 233.425 19.432 230.773 22.084C228.121 24.684 226.795 28.428 226.795 33.316V55H223.987V16H226.795V24.814ZM274.554 16H277.362V55H274.554V46.342C273.202 49.514 271.226 51.906 268.626 53.518C266.078 55.078 263.14 55.858 259.812 55.858C255.288 55.858 251.648 54.454 248.892 51.646C246.188 48.838 244.836 45.12 244.836 40.492V16H247.566V40.492C247.566 44.288 248.684 47.356 250.92 49.696C253.156 52.036 256.198 53.206 260.046 53.206C264.31 53.206 267.794 51.75 270.498 48.838C273.202 45.926 274.554 41.896 274.554 36.748V16Z" fill="#1E1E1E"/>
</svg>
